<?xml version="1.0" standalone="no"?>
<!DOCTYPE svg PUBLIC "-//W3C//DTD SVG 20010904//EN"
 "http://www.w3.org/TR/2001/REC-SVG-20010904/DTD/svg10.dtd">
<svg version="1.0" xmlns="http://www.w3.org/2000/svg"
 width="260.000000pt" height="260.000000pt" viewBox="0 0 260.000000 260.000000"
 preserveAspectRatio="xMidYMid meet">
<metadata>
Created by potrace 1.11, written by Peter Selinger 2001-2013
</metadata>
<g transform="translate(0.000000,260.000000) scale(0.100000,-0.100000)"
fill="#000000" stroke="none">
<path d="M0 1300 l0 -1300 1300 0 1300 0 0 1300 0 1300 -1300 0 -1300 0 0
-1300z m594 743 c23 -76 222 -954 239 -1057 l23 -129 22 129 c13 71 78 340
145 599 l122 470 155 3 155 2 118 -457 c65 -252 129 -519 143 -593 13 -74 26
-139 27 -144 1 -4 11 41 20 100 14 85 220 998 243 1077 5 15 22 17 165 17
l159 0 -5 -22 c-3 -13 -90 -354 -193 -758 l-187 -735 -186 -3 -186 -2 -111
432 c-61 238 -121 483 -133 543 -11 61 -23 117 -26 125 -3 8 -16 -39 -29 -105
-13 -66 -74 -317 -135 -558 l-112 -437 -186 2 -185 3 -186 730 c-103 402 -190
742 -193 758 l-7 27 159 0 c143 0 160 -2 165 -17z"/>
</g>
</svg>
